<?xml version="1.0" encoding="utf-8"?>
<!-- Generator: Adobe Illustrator 23.0.1, SVG Export Plug-In . SVG Version: 6.00 Build 0)  -->
<svg version="1.1" id="Layer_1" xmlns="http://www.w3.org/2000/svg" xmlns:xlink="http://www.w3.org/1999/xlink" x="0px" y="0px"
	 viewBox="0 0 121.1 38.8" style="enable-background:new 0 0 121.1 38.8;" xml:space="preserve">
<style type="text/css">
	.st0{fill:#F5AB25;}
	.st1{fill:#FFF7EE;}
	.st2{fill:#221F1F;}
	.st3{fill:#FBD08C;}
	.st4{fill:#FFFFFF;}
</style>
<g>
	<g>
		<g>
			<g>
				<g>
					<path class="st0" d="M18.2,38.8C18.2,38.8,18.2,38.8,18.2,38.8C18.1,38.8,18.1,38.8,18.2,38.8L18.2,38.8z"/>
				</g>
			</g>
			<g>
				<g>
					<path class="st0" d="M18.1,5C18.1,5,18.1,5,18.1,5C18.2,5,18.2,5,18.1,5L18.1,5z"/>
				</g>
			</g>
			<g>
				<g>
					<path class="st0" d="M36.2,20.5c-0.1-1.3-0.2-2.6-0.4-3.9c-0.2-5-0.6-12.2-0.6-12.2C35.1,2.4,34-0.1,32,0
						c-1.9,0.1-3.5,1.6-4.1,3.2c-0.1,0.3-0.8,1.5-1.5,3.3c0,0,0,0,0,0C24,5.6,21.5,5.1,19.1,5c-0.3,0-0.6,0-1,0c-0.3,0-0.6,0-1,0
						c-2.4,0.1-4.9,0.6-7.2,1.5c-0.7-1.8-1.4-3-1.5-3.3C7.8,1.7,6.1,0.1,4.3,0c-2-0.1-3.1,2.4-3.2,4.4c0,0-0.4,7.5-0.6,12.5
						c-0.2,1.2-0.3,2.5-0.4,3.7c-0.3,3.9,0,7.4,2.3,10.7c3.5,4.8,9.7,7.6,15.7,7.7c6-0.1,12.2-2.9,15.7-7.7
						C36.2,27.9,36.5,24.5,36.2,20.5z"/>
				</g>
			</g>
		</g>
		<g>
			<g>
				<g>
					<path class="st1" d="M18.2,3.4L18.2,3.4C18.2,3.4,18.2,3.4,18.2,3.4C18.2,3.4,18.2,3.4,18.2,3.4z"/>
				</g>
			</g>
			<g>
				<g>
					<path class="st1" d="M18.1,3.4L18.1,3.4C18.1,3.4,18.1,3.4,18.1,3.4C18.1,3.4,18.1,3.4,18.1,3.4z"/>
				</g>
			</g>
			<g>
				<g>
					<path class="st1" d="M33.5,23.3c-0.3-1.1-0.8-2.1-1.9-2.5c-1-0.3-2-0.1-3,0.2c-1.9,0.7-3.1,2.8-5.2,2.5
						c-1.3-0.2-2.7-1.2-3.7-2.1c0,0,0,0,0,0c-0.5-0.3-1-0.5-1.5-0.5c0,0,0,0,0,0c0,0,0,0,0,0c-0.5,0-1.1,0.2-1.5,0.5c0,0,0,0,0,0
						c-1,0.8-2.1,1.9-3.4,2.1c-2.1,0.3-3.6-1.8-5.5-2.5c-1-0.4-2-0.6-3-0.2c-1.1,0.4-1.7,1.4-1.9,2.5c-0.6,2.4-0.2,4.9,1.1,7
						c1.3,2.1,3.3,3.8,5.4,5c2.2,1.2,4.6,2,7.1,2.1c2.7,0.1,5.4,0,8-0.9c2.4-0.8,4.6-2.2,6.3-4c1.7-1.7,2.8-3.9,3-6.3
						C33.8,25.1,33.7,24.2,33.5,23.3z"/>
				</g>
			</g>
		</g>
		<g>
			<g>
				<path class="st2" d="M18.8,22.8c0,0-1.4,0-1.4,0c-2,0-1.4,2.7,0,3.2c0.1,0.1,0.4,0.1,0.5,0.1c0.1,0,0.2,0,0.3,0
					c0.2,0,0.4-0.1,0.5-0.1C20.2,25.5,20.9,22.8,18.8,22.8z"/>
			</g>
		</g>
		<g>
			<g>
				<g>
					<path class="st2" d="M15.2,30c-0.3,0-0.5,0-0.8-0.1c-0.8-0.2-1.5-0.7-1.9-1.4c-0.2-0.4-0.4-0.9-0.4-1.3c0-0.3,0.2-0.6,0.6-0.7
						c0.3,0,0.6,0.2,0.7,0.6c0,0.2,0.1,0.5,0.2,0.8c0.2,0.4,0.6,0.7,1.1,0.8c0.5,0.1,1.1,0,1.5-0.2c1.3-0.8,1.4-2.7,1.4-3.5
						c0-0.3,0.3-0.6,0.6-0.6s0.6,0.3,0.6,0.6c0,1-0.2,3.5-2,4.6C16.4,29.9,15.8,30,15.2,30z"/>
				</g>
			</g>
			<g>
				<g>
					<path class="st2" d="M21.1,30c-0.6,0-1.2-0.2-1.6-0.5c-1.8-1.1-2-3.6-2-4.6c0-0.3,0.3-0.6,0.6-0.6c0.3,0,0.6,0.3,0.6,0.6
						c0,0.8,0.1,2.7,1.4,3.5c0.4,0.3,1,0.3,1.5,0.2c0.5-0.1,0.9-0.4,1.1-0.8c0.1-0.2,0.2-0.5,0.2-0.8c0-0.3,0.3-0.6,0.7-0.6
						c0.3,0,0.6,0.3,0.6,0.7c0,0.4-0.2,0.9-0.4,1.3c-0.4,0.7-1.1,1.2-1.9,1.4C21.6,30,21.3,30,21.1,30z"/>
				</g>
			</g>
		</g>
		<g>
			<g>
				<path class="st2" d="M22.9,19.8c-0.1,0-0.2,0-0.3-0.1c-0.3-0.2-0.4-0.5-0.3-0.8c0.6-1.2,2.4-3,5.1-1.6c0.3,0.2,0.4,0.5,0.3,0.8
					c-0.2,0.3-0.5,0.4-0.8,0.3c-2.3-1.1-3.4,1-3.5,1.1C23.3,19.7,23.1,19.8,22.9,19.8z"/>
			</g>
		</g>
		<g>
			<g>
				<g>
					<circle class="st3" cx="23.8" cy="15.2" r="0.9"/>
				</g>
			</g>
		</g>
		<g>
			<g>
				<path class="st2" d="M13.4,19.8c-0.2,0-0.4-0.1-0.6-0.3c-0.1-0.2-1.2-2.2-3.5-1.1c-0.3,0.2-0.7,0-0.8-0.3
					c-0.2-0.3,0-0.7,0.3-0.8c2.7-1.4,4.6,0.5,5.1,1.6c0.2,0.3,0,0.7-0.3,0.8C13.6,19.8,13.5,19.8,13.4,19.8z"/>
			</g>
		</g>
		<g>
			<g>
				<circle class="st3" cx="12.5" cy="15.2" r="0.9"/>
			</g>
		</g>
		<g>
			<g>
				<g>
					<path class="st1" d="M28.2,7.6c0,0,1.2-3.2,2.1-4s1.9-0.3,1.9-0.3S32.9,3.6,33,5s0.4,6.9,0.4,6.9S30.7,9,28.2,7.6z"/>
				</g>
			</g>
			<g>
				<g>
					<path class="st1" d="M8.1,7.8c0,0-1.2-3.2-2.1-4S4.1,3.5,4.1,3.5S3.4,3.9,3.2,5.2s-0.4,6.9-0.4,6.9S5.5,9.2,8.1,7.8z"/>
				</g>
			</g>
		</g>
	</g>
	<g>
		<g>
			<path d="M58.7,27.3c0,0.3-0.1,0.4-0.3,0.4h-3.8c-0.2,0-0.3-0.1-0.3-0.4v-0.8c-0.7,1-2.1,1.4-3.5,1.4c-4,0-6.5-2.5-6.5-7
				c0-4.3,2.7-7,6.4-7c1.3,0,2.8,0.5,3.5,1.4V9.3c0-0.3,0-0.4,0.2-0.4h4.1c0.2,0,0.2,0,0.2,0.4V27.3z M54.3,20.9
				c0-1.8-1.2-2.8-2.7-2.8c-1.5,0-2.7,1.1-2.7,2.8c0,1.7,1.2,2.9,2.8,2.9C53.1,23.7,54.3,22.6,54.3,20.9z"/>
		</g>
		<g>
			<path d="M75.3,20.9c0,4.3-3,7.2-7.2,7.2c-4.2,0-7.2-2.9-7.2-7.2c0-4.1,2.9-7.3,7.2-7.3C72.3,13.6,75.3,16.6,75.3,20.9z
				 M70.8,20.9c0-1.8-1.2-2.9-2.7-2.9c-1.5,0-2.8,1.2-2.8,2.9c0,1.7,1.3,3,2.8,3C69.6,23.9,70.8,22.6,70.8,20.9z"/>
		</g>
		<g>
			<path d="M91.1,23.2c0,7.1-2.2,9.7-7.5,9.7c-1.6,0-3.9-0.7-5.2-1.4c-0.4-0.2-0.5-0.2-0.4-0.5c0.2-0.5,1-2.5,1.2-3.2
				c0.1-0.3,0.2-0.3,0.4-0.2c0.7,0.5,2.4,1.2,3.6,1.2c2.6,0,3.4-1,3.4-3.5c-0.8,1.1-2.1,1.7-3.8,1.7c-3.6,0-6.2-2.2-6.2-6.6
				c0-4.2,2.6-6.7,6.2-6.7c1.4,0,3.2,0.6,3.7,1.5v-1c0-0.3,0.1-0.3,0.2-0.3h4c0.2,0,0.2,0.2,0.2,0.3V23.2z M86.6,20.8
				c0-1.7-1.2-2.8-2.7-2.8c-1.5,0-2.7,1.2-2.7,2.8c0,1.6,1.2,2.7,2.7,2.7C85.4,23.5,86.6,22.5,86.6,20.8z"/>
		</g>
		<g>
			<g>
				<path class="st0" d="M97.9,33.4c-1.7,0-4.1-0.7-5.5-1.4c-0.1,0-0.1-0.1-0.2-0.1c-0.2-0.1-0.7-0.3-0.4-1c0.1-0.2,0.3-0.7,0.5-1.2
					c0.3-0.7,0.6-1.5,0.8-2c0.1-0.2,0.2-0.6,0.6-0.6c0.2,0,0.3,0.1,0.5,0.2c0.7,0.5,2.3,1.1,3.4,1.1c1.8,0,2.6-0.5,2.8-1.9
					c-0.8,0.6-1.9,0.9-3.2,0.9c-4.1,0-6.7-2.7-6.7-7c0-4.3,2.7-7.1,6.7-7.1c1.1,0,2.4,0.3,3.3,0.9c0-0.3,0.1-0.7,0.7-0.7h4
					c0.2,0,0.7,0.1,0.7,0.8v8.9C105.9,30.5,103.6,33.4,97.9,33.4z M98.2,18.5c-1.3,0-2.3,1-2.3,2.3c0,1.3,1,2.2,2.3,2.2
					c1.3,0,2.3-0.9,2.3-2.2C100.4,19.5,99.5,18.5,98.2,18.5z"/>
			</g>
			<g>
				<path class="st4" d="M97.2,13.8c1.4,0,3.2,0.6,3.7,1.5v-1c0-0.3,0.1-0.3,0.2-0.3h4c0.2,0,0.2,0.2,0.2,0.3v8.9
					c0,7.1-2.2,9.7-7.5,9.7c-1.6,0-3.9-0.7-5.2-1.4c-0.4-0.2-0.5-0.2-0.4-0.5c0.2-0.5,1-2.5,1.2-3.2c0.1-0.2,0.1-0.3,0.2-0.3
					c0.1,0,0.1,0,0.2,0.1c0.7,0.5,2.4,1.2,3.6,1.2c2.6,0,3.4-1,3.4-3.5c-0.8,1.1-2.1,1.7-3.8,1.7c-3.6,0-6.2-2.2-6.2-6.6
					C90.9,16.3,93.6,13.8,97.2,13.8 M98.2,23.5c1.5,0,2.7-1,2.7-2.7c0-1.7-1.2-2.8-2.7-2.8c-1.5,0-2.7,1.2-2.7,2.8
					C95.4,22.4,96.7,23.5,98.2,23.5 M97.2,12.9c-4.3,0-7.2,3.1-7.2,7.6c0,2.9,1.1,5.2,3,6.4c-0.2,0.1-0.3,0.3-0.4,0.7l0,0l0,0
					c-0.1,0.4-0.5,1.3-0.7,1.9c-0.3,0.6-0.4,1-0.5,1.3c-0.2,0.5-0.2,1.1,0.7,1.5c0,0,0.1,0,0.2,0.1l0,0l0,0c1.5,0.7,3.9,1.4,5.7,1.4
					c5.9,0,8.4-3.2,8.4-10.7v-8.9c0-1-0.7-1.3-1.2-1.3h-4c-0.3,0-0.7,0.1-1,0.5C99.2,13.1,98.1,12.9,97.2,12.9L97.2,12.9z
					 M98.2,22.6c-1,0-1.8-0.7-1.8-1.8c0-1.1,0.8-1.9,1.8-1.9c1.1,0,1.8,0.8,1.8,1.9C100,22,99.1,22.6,98.2,22.6L98.2,22.6z M97.5,28
					c0.6,0,1.2-0.1,1.7-0.3C98.8,27.9,98.3,28,97.5,28C97.5,28,97.5,28,97.5,28L97.5,28z"/>
			</g>
		</g>
		<g>
			<path class="st0" d="M121.1,20.9c0,4.3-3,7.2-7.2,7.2c-4.2,0-7.2-2.9-7.2-7.2c0-4.1,2.9-7.3,7.2-7.3
				C118.1,13.6,121.1,16.6,121.1,20.9z M116.6,20.9c0-1.8-1.2-2.9-2.7-2.9c-1.5,0-2.8,1.2-2.8,2.9c0,1.7,1.3,3,2.8,3
				C115.4,23.9,116.6,22.6,116.6,20.9z"/>
		</g>
	</g>
</g>
</svg>
