<?xml version="1.0" encoding="utf-8"?>
<!-- Generator: Adobe Illustrator 23.0.1, SVG Export Plug-In . SVG Version: 6.00 Build 0)  -->
<svg version="1.1" id="Layer_1" xmlns="http://www.w3.org/2000/svg" xmlns:xlink="http://www.w3.org/1999/xlink" x="0px" y="0px"
	 viewBox="0 0 14 14" style="enable-background:new 0 0 14 14;" xml:space="preserve">
<style type="text/css">
	.st0{fill:#66727C;}
</style>
<g>
	<g>
		<path class="st0" d="M4.8,9.7l-4.2,4.2c-0.3,0.3-0.9-0.2-0.5-0.5l4.2-4.2C3.5,8.2,3,6.9,3,5.5C3,2.5,5.4,0,8.5,0S14,2.5,14,5.5
			S11.5,11,8.5,11C7.1,11,5.8,10.5,4.8,9.7L4.8,9.7z M5.1,8.9c0.9,0.9,2.1,1.4,3.4,1.4c2.6,0,4.8-2.1,4.8-4.8s-2.1-4.8-4.8-4.8
			S3.7,2.9,3.7,5.5C3.7,6.8,4.2,8,5.1,8.9C5.1,8.9,5.1,8.9,5.1,8.9L5.1,8.9z"/>
	</g>
</g>
</svg>
