<?xml version="1.0" encoding="utf-8"?>
<!-- Generator: Adobe Illustrator 23.0.1, SVG Export Plug-In . SVG Version: 6.00 Build 0)  -->
<svg version="1.1" id="Layer_1" xmlns="http://www.w3.org/2000/svg" xmlns:xlink="http://www.w3.org/1999/xlink" x="0px" y="0px"
	 viewBox="0 0 27.3 26.1" style="enable-background:new 0 0 27.3 26.1;" xml:space="preserve">
<style type="text/css">
	.st0{fill:#F4DB27;}
</style>
<g>
	<path class="st0" d="M0.7,11.8L6,15.6c0.6,0.4,0.9,1.2,0.6,1.9l-2,6.2c-0.5,1.6,1.3,2.9,2.7,1.9l5.3-3.9c0.6-0.4,1.4-0.4,2,0
		l5.3,3.9c1.4,1,3.2-0.3,2.7-1.9l-2-6.2c-0.2-0.7,0-1.5,0.6-1.9l5.3-3.9c1.4-1,0.7-3.1-1-3.1H19c-0.8,0-1.4-0.5-1.6-1.2l-2-6.2
		c-0.5-1.6-2.8-1.6-3.3,0l-2,6.2c-0.4,0.8-1,1.2-1.8,1.2H1.7C0.1,8.6-0.6,10.8,0.7,11.8z"/>
</g>
</svg>
